<svg xmlns="http://www.w3.org/2000/svg" viewBox="0 0 64 64" fill="none" stroke="#0F0F1A" stroke-width="3.2" stroke-linecap="round" stroke-linejoin="round" role="img" aria-label="StudioBook">
  <!-- Viewfinder hump -->
  <path d="M19 18 v-4 a3 3 0 0 1 3-3 h7 a3 3 0 0 1 3 3 v4"/>
  <!-- Shutter button -->
  <path d="M45 13 h5"/>
  <!-- Camera body -->
  <rect x="6" y="18" width="52" height="38" rx="8"/>
  <!-- Open book where the lens/screen sits -->
  <g transform="translate(14 20) scale(1.5)" stroke-width="1.9">
    <path d="M2 3h6a4 4 0 0 1 4 4v14a3 3 0 0 0-3-3H2z"/>
    <path d="M22 3h-6a4 4 0 0 0-4 4v14a3 3 0 0 1 3-3h7z"/>
  </g>
</svg>
